<?xml version="1.0" encoding="UTF-8" standalone="no"?>
<!DOCTYPE svg PUBLIC "-//W3C//DTD SVG 1.1//EN" "http://www.w3.org/Graphics/SVG/1.1/DTD/svg11.dtd">
<!-- Created with Vectornator (http://vectornator.io/) -->
<svg height="100%" stroke-miterlimit="10" style="fill-rule:nonzero;clip-rule:evenodd;stroke-linecap:round;stroke-linejoin:round;" version="1.1" viewBox="0 0 3370.82 2384.24" width="100%" xml:space="preserve" xmlns="http://www.w3.org/2000/svg" xmlns:vectornator="http://vectornator.io" xmlns:xlink="http://www.w3.org/1999/xlink">
<defs/>
<g id="Layer-1" vectornator:layerName="Layer 1">
<g opacity="1" vectornator:layerName="Group 1">
<g opacity="1" vectornator:layerName="Group 1">
<path d="M2219.53 618.771C1804.8 469.846 1380.09 642.431 1171.15 926.967C966.829 1205.22 1096.62 1527.95 1493.58 1675.94C1721.84 1761.04 2040.44 1780.64 2291.07 1708.34" fill="none" opacity="1" stroke="#011627" stroke-linecap="round" stroke-linejoin="round" stroke-width="47.9828" vectornator:layerName="Curve 1"/>
</g>
<path d="M2306.39 1701.09C1579.46 1491.24 1546.78 943.198 2238.93 655.698" fill="none" opacity="1" stroke="#011627" stroke-linecap="round" stroke-linejoin="round" stroke-width="47.9828" vectornator:layerName="Curve 1"/>
<path d="M1508.83 820.164L1506.21 815.415L1498.84 813.287L1495.94 816.44L1496.72 820.657L1503.55 824.627L1511.46 824.912L1514.36 821.759L1515.43 818.075L1514.65 813.858L1507.81 809.888L1500.97 805.918L1494.91 806.165L1493.32 811.692L1491.72 817.219L1494.34 821.968L1499.87 823.563L1505.15 819.1L1508.59 814.105" fill="none" opacity="1" stroke="#011627" stroke-linecap="round" stroke-linejoin="round" stroke-width="47.9828" vectornator:layerName="Curve 2"/>
<path d="M1561.7 1164.76C1578.29 1107.3 1681.51 1046.59 1733.64 1094.64" fill="none" opacity="1" stroke="#011627" stroke-linecap="round" stroke-linejoin="round" stroke-width="47.9828" vectornator:layerName="Curve 3"/>
</g>
</g>
</svg>