<?xml version="1.0" encoding="UTF-8" standalone="no"?>
<!DOCTYPE svg PUBLIC "-//W3C//DTD SVG 1.1//EN" "http://www.w3.org/Graphics/SVG/1.1/DTD/svg11.dtd">
<!-- Created with Vectornator (http://vectornator.io/) -->
<svg height="100%" stroke-miterlimit="10" style="fill-rule:nonzero;clip-rule:evenodd;stroke-linecap:round;stroke-linejoin:round;" version="1.1" viewBox="0 0 3370.82 2384.24" width="100%" xml:space="preserve" xmlns="http://www.w3.org/2000/svg" xmlns:vectornator="http://vectornator.io" xmlns:xlink="http://www.w3.org/1999/xlink">
<defs/>
<g id="Layer-1" vectornator:layerName="Layer 1">
<g opacity="1" vectornator:layerName="Group 1">
<g opacity="1" vectornator:layerName="Group 1">
<path d="M2061.81 515.715C1622.04 487.665 1261.86 771.279 1140.04 1102.6C1020.92 1426.61 1235.13 1700.68 1657.56 1732.76C1900.47 1751.21 2212.01 1681.67 2432.75 1542.69" fill="none" opacity="1" stroke="#011627" stroke-linecap="round" stroke-linejoin="round" stroke-width="47.9828" vectornator:layerName="Curve 1"/>
</g>
<path d="M2445.45 1531.48C1688.84 1531.48 1505.44 1014.01 2090.69 545.812" fill="none" opacity="1" stroke="#011627" stroke-linecap="round" stroke-linejoin="round" stroke-width="47.9828" vectornator:layerName="Curve 1"/>
<path d="M1434.85 906.33L1431.02 902.494L1423.35 902.494L1421.43 906.33L1423.35 910.165L1431.02 912.083L1438.69 910.165L1440.61 906.33L1440.61 902.494L1438.69 898.659L1431.02 896.742L1423.35 894.824L1417.59 896.742L1417.59 902.494L1417.59 908.247L1421.43 912.083L1427.18 912.083L1431.02 906.33L1432.94 900.577" fill="none" opacity="1" stroke="#011627" stroke-linecap="round" stroke-linejoin="round" stroke-width="47.9828" vectornator:layerName="Curve 2"/>
<path d="M1581.22 1222.74C1581.22 1162.94 1663.56 1075.98 1726.97 1107.68" fill="none" opacity="1" stroke="#011627" stroke-linecap="round" stroke-linejoin="round" stroke-width="47.9828" vectornator:layerName="Curve 3"/>
</g>
</g>
</svg>