<?xml version="1.0" encoding="UTF-8" standalone="no"?>
<!DOCTYPE svg PUBLIC "-//W3C//DTD SVG 1.1//EN" "http://www.w3.org/Graphics/SVG/1.1/DTD/svg11.dtd">
<!-- Created with Vectornator (http://vectornator.io/) -->
<svg height="100%" stroke-miterlimit="10" style="fill-rule:nonzero;clip-rule:evenodd;stroke-linecap:round;stroke-linejoin:round;" version="1.1" viewBox="0 0 3370.82 2384.24" width="100%" xml:space="preserve" xmlns="http://www.w3.org/2000/svg" xmlns:vectornator="http://vectornator.io" xmlns:xlink="http://www.w3.org/1999/xlink">
<defs/>
<g id="Layer-1" vectornator:layerName="Layer 1">
<path d="M489.904 1430.81C475.204 1430.81 411.481 1398.35 394.565 1409.63C383.65 1416.9 404.941 1422.97 410.455 1425.52C449.441 1443.51 481.239 1454.04 524.332 1467.89C589.259 1488.76 666.688 1526.15 736.197 1526.15" fill="none" opacity="1" stroke="#EDFA63" stroke-linecap="round" stroke-linejoin="round" stroke-width="48.9773" vectornator:layerName="Curve 57"/>
<path d="M402.51 1391.09C505.928 1346.77 607.18 1264.77 699.121 1200.41" fill="none" opacity="1" stroke="#EDFA63" stroke-linecap="round" stroke-linejoin="round" stroke-width="48.9773" vectornator:layerName="Curve 58"/>
<path d="M709.714 1173.93C680.147 1114.79 756.825 1435.97 760.032 1452" fill="none" opacity="1" stroke="#EDFA63" stroke-linecap="round" stroke-linejoin="round" stroke-width="48.9773" vectornator:layerName="Curve 59"/>
<path d="M876.558 1851.9C886.784 1943.93 916.489 2069.47 958.655 2153.8" fill="none" opacity="1" stroke="#EDFA63" stroke-linecap="round" stroke-linejoin="round" stroke-width="48.9773" vectornator:layerName="Curve 60"/>
<path d="M892.448 1849.25C965.563 1911.92 1099.9 2002.85 1202.3 2002.85" fill="none" opacity="1" stroke="#EDFA63" stroke-linecap="round" stroke-linejoin="round" stroke-width="48.9773" vectornator:layerName="Curve 61"/>
<path d="M961.304 2161.75C1048.38 2113.37 1123.03 2053.59 1207.6 2002.85" fill="none" opacity="1" stroke="#EDFA63" stroke-linecap="round" stroke-linejoin="round" stroke-width="48.9773" vectornator:layerName="Curve 62"/>
<path d="M1681.64 2045.22C1665.52 2045.22 1677.97 2044.31 1702.83 2061.11C1726.98 2077.43 1749.91 2095.53 1774.34 2111.43C1815.55 2138.25 1965.22 2268.5 2023.28 2249.14" fill="none" opacity="1" stroke="#EDFA63" stroke-linecap="round" stroke-linejoin="round" stroke-width="48.9773" vectornator:layerName="Curve 63"/>
<path d="M2004.74 1976.37C2004.74 1973.47 2003.88 1957.52 2007.39 1955.18C2011.57 1952.39 2015.42 1975.81 2012.68 2031.98C2011.65 2053.22 2009.27 2074.36 2007.39 2095.54C2003.28 2141.75 1999.44 2186.89 1999.44 2233.25" fill="none" opacity="1" stroke="#EDFA63" stroke-linecap="round" stroke-linejoin="round" stroke-width="48.9773" vectornator:layerName="Curve 64"/>
<path d="M1628.68 1981.66C1749.83 2014.7 1873.04 1992.35 1994.15 1973.72" fill="none" opacity="1" stroke="#EDFA63" stroke-linecap="round" stroke-linejoin="round" stroke-width="48.9773" vectornator:layerName="Curve 65"/>
<path d="M2635.04 1515.56C2635.04 1586.97 2583.59 1671.96 2529.11 1716.83C2525.62 1719.7 2439.79 1780.39 2462.9 1780.39" fill="none" opacity="1" stroke="#EDFA63" stroke-linecap="round" stroke-linejoin="round" stroke-width="48.9773" vectornator:layerName="Curve 66"/>
<path d="M2605.91 1504.97C2688.64 1595.97 2808.78 1711.01 2921.06 1767.15" fill="none" opacity="1" stroke="#EDFA63" stroke-linecap="round" stroke-linejoin="round" stroke-width="48.9773" vectornator:layerName="Curve 67"/>
<path d="M2476.14 1783.04C2619.93 1762.5 2782.34 1748 2929 1740.67" fill="none" opacity="1" stroke="#EDFA63" stroke-linecap="round" stroke-linejoin="round" stroke-width="48.9773" vectornator:layerName="Curve 68"/>
<path d="M2592.66 800.515C2628.1 871.395 2681.32 932.795 2717.14 1004.44C2724.37 1018.91 2747.85 1134.71 2722.43 1083.88" fill="none" opacity="1" stroke="#EDFA63" stroke-linecap="round" stroke-linejoin="round" stroke-width="48.9773" vectornator:layerName="Curve 69"/>
<path d="M2600.61 805.812C2659.6 786.148 2909.51 827.678 2974.02 853.481" fill="none" opacity="1" stroke="#EDFA63" stroke-linecap="round" stroke-linejoin="round" stroke-width="48.9773" vectornator:layerName="Curve 70"/>
<path d="M2748.92 1057.4C2831.58 998.357 2900.77 925.69 2979.32 861.426" fill="none" opacity="1" stroke="#EDFA63" stroke-linecap="round" stroke-linejoin="round" stroke-width="48.9773" vectornator:layerName="Curve 71"/>
<path d="M2076.24 435.048C2184.93 419.52 2301.83 530.387 2415.23 530.387" fill="none" opacity="1" stroke="#EDFA63" stroke-linecap="round" stroke-linejoin="round" stroke-width="48.9773" vectornator:layerName="Curve 72"/>
<path d="M2409.93 517.145C2409.93 426.161 2407.11 319.416 2372.85 233.776" fill="none" opacity="1" stroke="#EDFA63" stroke-linecap="round" stroke-linejoin="round" stroke-width="48.9773" vectornator:layerName="Curve 73"/>
<path d="M2060.35 416.51C2150.96 356.104 2259.73 295.123 2359.61 252.314" fill="none" opacity="1" stroke="#EDFA63" stroke-linecap="round" stroke-linejoin="round" stroke-width="48.9773" vectornator:layerName="Curve 74"/>
<path d="M1430.06 133.14C1502.14 229.25 1617.02 401.251 1734.61 448.289" fill="none" opacity="1" stroke="#EDFA63" stroke-linecap="round" stroke-linejoin="round" stroke-width="48.9773" vectornator:layerName="Curve 75"/>
<path d="M1334.72 493.311C1373.66 389.467 1387.89 258.829 1403.57 149.03" fill="none" opacity="1" stroke="#EDFA63" stroke-linecap="round" stroke-linejoin="round" stroke-width="48.9773" vectornator:layerName="Curve 76"/>
<path d="M1355.9 485.366C1477.44 441.171 1608.7 420.52 1731.96 379.433" fill="none" opacity="1" stroke="#EDFA63" stroke-linecap="round" stroke-linejoin="round" stroke-width="48.9773" vectornator:layerName="Curve 77"/>
<path d="M587.892 474.772C663.203 535.021 707.425 647.49 746.79 736.955C750.464 745.306 789 853.973 794.46 837.591" fill="none" opacity="1" stroke="#EDFA63" stroke-linecap="round" stroke-linejoin="round" stroke-width="48.9773" vectornator:layerName="Curve 78"/>
<path d="M638.209 495.959C779.76 564.294 919.642 589.451 1072.53 609.836" fill="none" opacity="1" stroke="#EDFA63" stroke-linecap="round" stroke-linejoin="round" stroke-width="48.9773" vectornator:layerName="Curve 79"/>
<path d="M786.515 890.558C894.716 818.423 966.566 667.736 1083.13 617.781" fill="none" opacity="1" stroke="#EDFA63" stroke-linecap="round" stroke-linejoin="round" stroke-width="48.9773" vectornator:layerName="Curve 80"/>
<path d="M1292.34 1144.8C1320.58 1144.8 1349.94 927.615 1400.92 1057.4C1406.14 1070.68 1411.69 1083.82 1416.81 1097.13C1430.09 1131.64 1421.18 1116.92 1432.7 1134.2" fill="none" opacity="1" stroke="#EDFA63" stroke-linecap="round" stroke-linejoin="round" stroke-width="48.9773" vectornator:layerName="Curve 81"/>
<path d="M1980.9 1091.83C1981.08 1091.66 2046.5 945.555 2052.41 951.469C2081.88 980.942 2055.94 1082.41 2100.08 1097.13" fill="none" opacity="1" stroke="#EDFA63" stroke-linecap="round" stroke-linejoin="round" stroke-width="48.9773" vectornator:layerName="Curve 82"/>
<path d="M1922.64 586.002C1666.75 586.002 1346.22 665.241 1167.87 861.426C1021.91 1021.98 863.368 1350.38 1011.62 1557.93C1092.15 1670.67 1271.49 1731.89 1403.57 1753.91C1705.46 1804.22 2090.44 1735.93 2325.19 1528.8C2488.47 1384.73 2573.15 1151.78 2420.52 967.359C2370.19 906.541 2301.74 854.135 2237.79 808.46C2114.3 720.255 1976.54 660.173 1835.25 607.188" fill="none" opacity="1" stroke="#EDFA63" stroke-linecap="round" stroke-linejoin="round" stroke-width="48.9773" vectornator:layerName="Curve 84"/>
<path d="M1580.71 1307.48C1620.71 1387.49 1705.63 1399.25 1769.74 1335.14" fill="none" opacity="1" stroke="#EDFA63" stroke-linecap="round" stroke-linejoin="round" stroke-width="48.9773" vectornator:layerName="Curve 85"/>
</g>
</svg>