<?xml version="1.0" encoding="UTF-8" standalone="no"?>
<!DOCTYPE svg PUBLIC "-//W3C//DTD SVG 1.1//EN" "http://www.w3.org/Graphics/SVG/1.1/DTD/svg11.dtd">
<!-- Created with Vectornator (http://vectornator.io/) -->
<svg height="100%" stroke-miterlimit="10" style="fill-rule:nonzero;clip-rule:evenodd;stroke-linecap:round;stroke-linejoin:round;" version="1.1" viewBox="0 0 3370.82 2384.24" width="100%" xml:space="preserve" xmlns="http://www.w3.org/2000/svg" xmlns:vectornator="http://vectornator.io" xmlns:xlink="http://www.w3.org/1999/xlink">
<defs/>
<g id="Layer-1" vectornator:layerName="Layer 1">
<g opacity="1" vectornator:layerName="Group 1">
<path d="M1901.62 605.461C1443.56 556.671 1064.86 847.449 939.322 1188.9C820.192 1512.9 1034.41 1786.98 1456.84 1819.06C1870.68 1850.49 2483.74 1626.53 2507.59 1238.88C2529.34 885.584 2064.44 663.541 1688.45 634.098" fill="none" opacity="1" stroke="#fdca40" stroke-linecap="round" stroke-linejoin="round" stroke-width="47.9828" vectornator:layerName="Curve 29"/>
<path d="M1331.57 1114.64C1375.3 1076.7 1272.6 1131.87 1332.52 1132.2C1336.27 1132.22 1340.37 1131.26 1343.17 1129.23C1363.2 1114.72 1348.04 1061.21 1318.59 1077.32C1279.75 1098.58 1305.75 1137.04 1331.57 1114.64Z" fill="none" opacity="1" stroke="#fdca40" stroke-linecap="round" stroke-linejoin="round" stroke-width="47.9828" vectornator:layerName="Curve 30"/>
<path d="M2007.51 1046.99C2045.13 1015.5 1944.95 1043.75 1979.91 1075.88C2001.45 1095.68 2052.41 1035.58 2011.63 1021.76C1999.61 1017.68 1958.23 1088.25 2007.51 1046.99Z" fill="none" opacity="1" stroke="#fdca40" stroke-linecap="round" stroke-linejoin="round" stroke-width="47.9828" vectornator:layerName="Curve 31"/>
<path d="M1374.71 126.275C1387.85 219.13 1365.52 317.509 1348.89 408.99C1346.76 420.703 1320.16 538.243 1322.61 523.251" fill="none" opacity="1" stroke="#fdca40" stroke-linecap="round" stroke-linejoin="round" stroke-width="47.9828" vectornator:layerName="Curve 32"/>
<path d="M1372.54 123.991C1402.17 172.681 1471.29 228.778 1511.39 270.217C1580.26 341.385 1648.74 421.608 1725.33 486.053" fill="none" opacity="1" stroke="#fdca40" stroke-linecap="round" stroke-linejoin="round" stroke-width="47.9828" vectornator:layerName="Curve 33"/>
<path d="M1295.58 501.889C1445.16 500.587 1587.87 466.464 1738.29 468.95" fill="none" opacity="1" stroke="#fdca40" stroke-linecap="round" stroke-linejoin="round" stroke-width="47.9828" vectornator:layerName="Curve 34"/>
<path d="M1073.57 615.839C970.93 679.422 898.49 782.473 810.136 858.868" fill="none" opacity="1" stroke="#fdca40" stroke-linecap="round" stroke-linejoin="round" stroke-width="47.9828" vectornator:layerName="Curve 35"/>
<path d="M635.827 540.461C659.143 638.047 732.045 735.777 798.903 818.651" fill="none" opacity="1" stroke="#fdca40" stroke-linecap="round" stroke-linejoin="round" stroke-width="47.9828" vectornator:layerName="Curve 36"/>
<path d="M568.103 488.066C684.617 530.384 888.245 618.404 1020.7 581.456" fill="none" opacity="1" stroke="#fdca40" stroke-linecap="round" stroke-linejoin="round" stroke-width="47.9828" vectornator:layerName="Curve 37"/>
<path d="M698.934 1181.78C681.667 1202.39 701.062 1231.58 704.564 1256.31C714.744 1328.22 728.204 1400 740.594 1471.68C745.464 1499.85 737.03 1493.92 750.975 1501.54" fill="none" opacity="1" stroke="#fdca40" stroke-linecap="round" stroke-linejoin="round" stroke-width="47.9828" vectornator:layerName="Curve 38"/>
<path d="M706.569 1166.16C598.193 1224.48 465.811 1310.61 391.315 1399.56" fill="none" opacity="1" stroke="#fdca40" stroke-linecap="round" stroke-linejoin="round" stroke-width="47.9828" vectornator:layerName="Curve 39"/>
<path d="M367.449 1374.43C481.008 1419.06 597.381 1487.23 725.654 1500.89" fill="none" opacity="1" stroke="#fdca40" stroke-linecap="round" stroke-linejoin="round" stroke-width="47.9828" vectornator:layerName="Curve 40"/>
<path d="M891.284 1810.16C984.482 1873.29 1102.3 1892.33 1196.87 1947.45" fill="none" opacity="1" stroke="#fdca40" stroke-linecap="round" stroke-linejoin="round" stroke-width="47.9828" vectornator:layerName="Curve 41"/>
<path d="M866.155 1823.91C853.765 1899.8 913.63 1995.69 933.219 2067.23C934.051 2070.27 951.339 2169.1 968.179 2149" fill="none" opacity="1" stroke="#fdca40" stroke-linecap="round" stroke-linejoin="round" stroke-width="47.9828" vectornator:layerName="Curve 42"/>
<path d="M1179.04 1947.6C1128.56 2031.41 1010.08 2097.54 927.726 2163.17" fill="none" opacity="1" stroke="#fdca40" stroke-linecap="round" stroke-linejoin="round" stroke-width="47.9828" vectornator:layerName="Curve 43"/>
<path d="M1614.56 1989.88C1751.1 2012.52 1877.24 1972.48 2004.6 1936.96" fill="none" opacity="1" stroke="#fdca40" stroke-linecap="round" stroke-linejoin="round" stroke-width="47.9828" vectornator:layerName="Curve 44"/>
<path d="M1617.58 2002.53C1630.37 2043.09 1850.89 2167.26 1921.76 2195.12" fill="none" opacity="1" stroke="#fdca40" stroke-linecap="round" stroke-linejoin="round" stroke-width="47.9828" vectornator:layerName="Curve 45"/>
<path d="M2012.75 1933.72C1977.87 2041.61 1953.64 2152.29 1916.22 2260.24" fill="none" opacity="1" stroke="#fdca40" stroke-linecap="round" stroke-linejoin="round" stroke-width="47.9828" vectornator:layerName="Curve 46"/>
<path d="M2602.86 1511.9C2609.18 1473.24 2576.79 1579.44 2573.17 1584.73C2546.1 1624.3 2421.23 1721.13 2415.4 1756.86" fill="none" opacity="1" stroke="#fdca40" stroke-linecap="round" stroke-linejoin="round" stroke-width="47.9828" vectornator:layerName="Curve 47"/>
<path d="M2591.82 1486.08C2558.94 1482.58 2601.39 1526.4 2650.13 1580.6C2700.16 1636.23 2803.61 1705.25 2832.37 1772.52" fill="none" opacity="1" stroke="#fdca40" stroke-linecap="round" stroke-linejoin="round" stroke-width="47.9828" vectornator:layerName="Curve 48"/>
<path d="M2393.09 1768.86C2558.15 1756.07 2739.3 1737.97 2903.81 1755.49" fill="none" opacity="1" stroke="#fdca40" stroke-linecap="round" stroke-linejoin="round" stroke-width="47.9828" vectornator:layerName="Curve 49"/>
<path d="M2558.65 817.151C2587.32 812.682 2615.08 888.023 2617.42 893.236C2645.5 955.797 2656 1022.51 2682.73 1085.03" fill="none" opacity="1" stroke="#fdca40" stroke-linecap="round" stroke-linejoin="round" stroke-width="47.9828" vectornator:layerName="Curve 50"/>
<path d="M2570.57 775.292C2698.96 825.753 2845.76 850.444 2978.9 890.665" fill="none" opacity="1" stroke="#fdca40" stroke-linecap="round" stroke-linejoin="round" stroke-width="47.9828" vectornator:layerName="Curve 51"/>
<path d="M3003.37 880.949C2899.93 915.1 2812.68 1037.94 2710.22 1087.95" fill="none" opacity="1" stroke="#fdca40" stroke-linecap="round" stroke-linejoin="round" stroke-width="47.9828" vectornator:layerName="Curve 52"/>
<path d="M2075.43 459.68C2029 438.619 2180.48 513.267 2197.81 519.95C2255.99 542.379 2314.47 565.085 2372.34 587.828" fill="none" opacity="1" stroke="#fdca40" stroke-linecap="round" stroke-linejoin="round" stroke-width="47.9828" vectornator:layerName="Curve 53"/>
<path d="M2056.1 453.513C2181.17 406.496 2316.4 337.322 2411.4 255.182" fill="none" opacity="1" stroke="#fdca40" stroke-linecap="round" stroke-linejoin="round" stroke-width="47.9828" vectornator:layerName="Curve 54"/>
<path d="M2407.25 265.008C2391.44 297.351 2397.14 344.723 2394.12 376.564C2387.31 448.429 2366.08 517.134 2354.52 587.984" fill="none" opacity="1" stroke="#fdca40" stroke-linecap="round" stroke-linejoin="round" stroke-width="47.9828" vectornator:layerName="Curve 55"/>
<path d="M1576.12 1353.25C1594.56 1430.47 1677.12 1396.72 1722.06 1362.63" fill="none" opacity="1" stroke="#fdca40" stroke-linecap="round" stroke-linejoin="round" stroke-width="47.9828" vectornator:layerName="Curve 56"/>
</g>
</g>
</svg>